<svg width="600" height="299.995292601988" version="1.1" xmlns="http://www.w3.org/2000/svg" xmlns:xlink="http://www.w3.org/1999/xlink" transform="translate(0,299) scale(1,-1)" stroke="gray"> <rect width="600" height="299.995292601988" x="0" y="0" fill="white"></rect> <g transform="translate(100, 50)"> <g stroke-dasharray="4"> <line x1="0" x2="0" y1="0" y2="199.995292601988"></line> <line x1="100" x2="100" y1="0" y2="199.995292601988"></line> <line x1="200" x2="200" y1="0" y2="199.995292601988"></line> <line x1="300" x2="300" y1="0" y2="199.995292601988"></line> <line x1="400" x2="400" y1="0" y2="199.995292601988"></line> <line x1="0" x2="400" y1="0" y2="0"></line> <line x1="0" x2="400" y1="100" y2="100"></line></g> <g transform="scale(1,-1)"> <text y="20" x="0"> 0</text> <text y="20" x="100"> 100</text> <text y="20" x="200"> 200</text> <text y="20" x="300"> 300</text> <text y="20" x="400"> 400</text></g> <g fill="none" stroke="blue" stroke-width="2"> <polyline points="0 99.99710363300245, 1 101.99697030233577, 2 103.99603705166587, 3 105.99350428094691, 4 107.98857302991972, 5 109.98044529768526, 6 111.96832436189439, 7 113.9514150974261, 8 115.92892429442705, 9 117.90006097558486, 10 119.86403671250858, 11 121.82006594108938, 12 123.76736627571591, 13 125.70515882221797, 14 127.63266848941383, 15 129.5491242991364, 16 131.45375969461423, 17 133.3458128470839, 18 135.22452696051144, 19 137.08915057430073, 20 138.93893786386752, 21 140.77314893895948, 22 142.59105013960243, 23 144.39191432955442, 24 146.17502118715075, 25 147.93965749342277, 26 149.68511741737612, 27 151.41070279831376, 28 153.11572342509078, 29 154.7994973121898, 30 156.46135097250598, 31 158.10061968673295, 32 159.71664776924166, 33 161.30878883034583, 34 162.8764060348493, 35 164.41887235677154, 36 165.93557083014974, 37 167.42589479581696, 38 168.8892481440576, 39 170.32504555304348, 40 171.73271272295472, 41 173.11168660569203, 42 174.46141563008837, 43 175.78135992253016, 44 177.07099152289936, 45 178.3297945957508, 46 179.55726563663904, 47 180.7529136735139, 48 181.91626046310228, 49 183.0468406821995, 50 184.14420211379212, 51 185.20790582793876, 52 186.2375263573363, 53 187.2326518675011, 54 188.19288432149722, 55 189.11783963914598, 56 190.00714785065296, 57 190.86045324459076, 58 191.67741451017912, 59 192.4577048738045, 60 193.20101222972508, 61 193.9070392649092, 62 194.57550357795634, 63 195.20613779205402, 64 195.79868966192493, 65 196.35292217472175, 66 196.868613644829, 67 197.3455578025344, 68 197.78356387653406, 69 198.18245667023842, 70 198.5420766318485, 71 198.8622799181744, 72 199.1429384521711, 73 199.38393997416694, 74 199.58518808676644, 75 199.7466022934079, 76 199.86811803056077, 77 199.94968669355035, 78 199.9912756559991, 79 199.99286828287646, 80 199.95446393715298, 81 199.87607798005484, 82 199.7577417649198, 83 199.5995026246561, 84 199.40142385281007, 85 199.16358467824932, 86 198.8860802334726, 87 198.5690215165578, 88 198.2125353467643, 89 197.8167643138069, 90 197.38186672082196, 91 196.90801652104807, 92 196.39540324824725, 93 195.84423194089385, 94 195.254723060162, 95 194.6271124017439, 96 193.96165100153496, 97 193.2586050352225, 98 192.51825571181928, 99 191.74089916118345, 100 190.92684631557063, 101 190.07642278526518, 102 189.18996872834043, 103 188.26783871459986, 104 187.3104015837541, 105 186.3180402978898, 106 185.29115178829005, 107 184.23014679666701, 108 183.13544971087077, 109 182.00749839513986, 110 180.84674401496147, 111 179.6536508566111, 112 178.42869614144445, 113 177.17236983501505, 114 175.88517445109466, 115 174.56762485067446, 116 173.2202480360276, 117 171.84358293991508, 118 170.43818021002008, 119 169.0046019886961, 120 167.54342168811755, 121 166.05522376092253, 122 164.5406034664395, 123 163.0001666325917, 124 161.4345294135736, 125 159.84431804339812, 126 158.23016858541064, 127 156.59272667787275, 128 154.9326472757151, 129 153.25059438856456, 130 151.54724081514888, 131 149.8232678741863, 132 148.0793651318673, 133 146.31623012603697, 134 144.53456808718957, 135 142.73509165638544, 136 140.91852060020418, 137 139.0855815228477, 138 137.23700757550802, 139 135.37353816311676, 140 133.49591864859298, 141 131.60490005470783, 142 129.7012387636857, 143 127.78569621466113, 144 125.85903859911353, 145 123.92203655440069, 146 121.97546485551415, 147 120.0201021051795, 148 118.05673042242574, 149 116.08613512974803, 150 114.10910443898918, 151 112.12642913606543, 152 110.13890226466263, 153 108.14731880902937, 154 106.15247537599377, 155 104.1551698763315, 156 102.15620120561205, 157 100.15636892465113, 158 98.15647293969707, 159 96.15731318247892, 160 94.15968929024444, 161 92.16440028591592, 162 90.17224425849159, 163 88.18401804382071, 164 86.20051690587977, 165 84.22253421867764, 166 82.25086114891644, 167 80.28628633953547, 168 78.32959559426449, 169 76.38157156331275, 170 74.44299343031933, 171 72.51463660069005, 172 70.5972723914457, 173 68.69166772270543, 174 66.79858481092904, 175 64.91878086404047, 176 63.05300777855474, 177 61.20201183882942, 178 59.36653341856077, 179 57.54730668464419, 180 55.74505930351721, 181 53.96051215010262, 182 52.194379019468165, 183 50.44736634131796, 184 48.720172897430075, 185 47.01348954215311, 186 45.32799892607373, 187 43.66437522296545, 188 42.023283860128174, 189 40.405381252226064, 190 38.811314538730564, 191 37.24172132507312, 192 35.697229427611575, 193 34.17845662251196, 194 32.68601039864629, 195 31.22048771460507, 196 29.78247475992191, 197 28.3725467206054, 198 26.991267549072504, 199 25.639189738574984, 200 24.316854102209632, 201 23.02478955660007, 202 21.76351291033717, 203 20.533528657262778, 204 19.335328774678402, 205 18.169392526561424, 206 17.03618627186536, 207 15.936163277982999, 208 14.869763539445003, 209 13.837413601928404, 210 12.83952639164363, 211 11.87650105016992, 212 10.9487227748036, 213 10.056562664484687, 214 9.200377571361912, 215 8.380509958056962, 216 7.597287760683656, 217 6.851024257678205, 218 6.14201794449167, 219 5.470552414196121, 220 4.836896244050848, 221 4.241302888075339, 222 3.684010575670783, 223 3.165242216331734, 224 2.6852053104850597, 225 2.2440918664927523, 226 1.842078323850913, 227 1.4793254826165025, 228 1.1559784390894094, 229 0.8721665277757609, 230 0.6280032696560056, 231 0.4235863267779223, 232 0.25899746319312555, 233 0.1343025122525603, 234 0.04955135027405788, 235 0.004777876592370944, 236 0.0, 237 0.035219631583913724, 238 0.11042268396103339, 239 0.22557907691312096, 240 0.38064274941838505, 241 0.575551678075314, 242 0.8102279019111904, 243 1.0845775535654667, 244 1.398490896835412, 245 1.7518423705692072, 246 2.1444906388885983, 247 2.5762786477215514, 248 3.0470336876215782, 249 3.556567462849401, 250 4.104676166688606, 251 4.6911405629656855, 252 5.315726073741558, 253 5.978182873139588, 254 6.678245987272689, 255 7.415635400229206, 256 8.190056166075763, 257 9.001198526831388, 258 9.848738036366967, 259 10.732335690178985, 260 11.651638060987139, 261 12.606277440100214, 262 13.59587198449502, 263 14.620025869548115, 264 15.678329447360781, 265 16.77035941061233, 266 17.89567896187775, 267 19.053837988340504, 268 20.244373241832037, 269 21.466808524124403, 270 22.72065487740373, 271 24.005410779846358, 272 25.320562346221223, 273 26.665583533436802, 274 28.039936350951706, 275 29.44307107596326, 276 30.874426473289745, 277 32.33343001985676, 278 33.81949813369869, 279 35.33203640738411, 280 36.87043984577029, 281 38.43409310799382, 282 40.022370753598075, 283 41.63463749270173, 284 43.27024844010559, 285 44.928549373238695, 286 46.608876993838024, 287 48.31055919325958, 288 50.03291532131221, 289 51.7752564585093, 290 53.536885691626715, 291 55.31709839245945, 292 57.115182499662865, 293 58.930418803568365, 294 60.76208123385707, 295 62.60943714997885, 296 64.47174763419818, 297 66.34826778715203, 298 68.23824702579897, 299 70.1409293836431, 300 72.05555381310987, 301 73.98135448995556, 302 75.91756111958654, 303 77.8633992451665, 304 79.81809055738957, 305 81.78085320579287, 306 83.75090211148704, 307 85.72744928117659, 308 87.70970412234745, 309 89.69687375949266, 310 91.68816335125281, 311 93.68277640834117, 312 95.67991511212958, 313 97.6787806337645, 314 99.67857345368866, 315 101.67849368143743, 316 103.67774137558514, 317 105.67551686371026, 318 107.67102106225434, 319 109.66345579614418, 320 111.65202411805181, 321 113.63593062716222, 322 115.61438178732365, 323 117.58658624445086, 324 119.55175514305688, 325 121.50910244178401, 326 123.45784522781045, 327 125.39720403000476, 328 127.32640313070368, 329 129.2446708759894, 330 131.15123998434024, 331 133.04534785353354, 332 134.92623686567595, 333 136.79315469024093, 334 138.6453545849904, 335 140.4820956946623, 336 142.30264334730214, 337 144.10626934812268, 338 145.89225227077148, 339 147.6598777458924, 340 149.40843874686328, 341 151.1372358725977, 342 152.84557762729554, 343 154.53278069703265, 344 156.19817022307674, 345 157.84108007182246, 346 159.46085310123533, 347 161.05684142370035, 348 162.62840666516803, 349 164.17492022049584, 350 165.69576350488137, 351 167.1903282012886, 352 168.6580165037663, 353 170.09824135656226, 354 171.51042668893825, 355 172.89400764559005, 356 174.24843081258263, 357 175.57315443870783, 358 176.86764865217805, 359 178.13139567256746, 360 179.36389001791775, 361 180.56463870692377, 362 181.73316145611975, 363 182.868990871986, 364 183.97167263790044, 365 185.0407656958589, 366 186.0758424228926, 367 187.07648880211156, 368 188.0423045883059, 369 188.9729034680384, 370 189.86791321416513, 371 190.72697583472086, 372 191.54974771611143, 373 192.33589976055435, 374 193.0851175177138, 375 193.79710131047636, 376 194.4715663548178, 377 195.10824287371335, 378 195.70687620504415, 379 196.26722690345946, 380 196.7890708361511, 381 197.27219927250383, 382 197.71641896758473, 383 198.12155223943864, 384 198.48743704015854, 385 198.8139270207025, 386 199.10089158943143, 387 199.34821596434404, 388 199.55580121898794, 389 199.72356432202903, 390 199.85143817046296, 391 199.93937161645525, 392 199.98732948779997, 393 199.995292601988, 394 199.9632577738799, 395 199.89123781697964, 396 199.77926153830987, 397 199.627373726889, 398 199.43563513581648, 399 199.20412245797223, 400 198.93292829534062" stroke-width="2"></polyline></g></g></svg>